<?xml version="1.0" standalone="no"?>
<!DOCTYPE svg PUBLIC "-//W3C//DTD SVG 20010904//EN"
 "http://www.w3.org/TR/2001/REC-SVG-20010904/DTD/svg10.dtd">
<svg version="1.0" xmlns="http://www.w3.org/2000/svg"
 width="600.000000pt" height="600.000000pt" viewBox="0 0 600.000000 600.000000"
 preserveAspectRatio="xMidYMid meet">

<g transform="translate(0.000000,600.000000) scale(0.100000,-0.100000)"
fill="#000000" stroke="none">
<path d="M4255 3325 c-130 -28 -208 -83 -256 -181 -28 -56 -33 -76 -33 -142 0
-101 23 -168 80 -231 78 -86 181 -122 349 -122 271 0 428 139 413 365 -9 126
-69 221 -178 276 -92 47 -253 62 -375 35z m265 -169 c76 -38 109 -109 95 -202
-13 -92 -104 -154 -224 -154 -149 0 -232 69 -233 193 -1 56 11 87 46 125 64
71 214 89 316 38z"/>
<path d="M2280 2995 l0 -325 90 0 90 0 0 210 c0 116 2 210 3 210 2 0 98 -94
212 -210 l209 -210 83 0 83 0 0 325 0 325 -90 0 -90 0 0 -195 c0 -107 -3 -195
-7 -195 -5 1 -91 88 -193 194 l-185 194 -102 1 -103 1 0 -325z"/>
<path d="M3210 2995 l0 -325 345 0 345 0 0 70 0 70 -255 0 -255 0 0 60 0 60
205 0 206 0 -3 68 -3 67 -202 3 -203 2 0 50 0 50 250 0 250 0 0 75 0 75 -340
0 -340 0 0 -325z"/>
<path d="M4930 2995 l0 -325 90 0 90 0 0 213 1 212 209 -212 210 -213 85 0 85
0 0 325 0 325 -90 0 -90 0 0 -195 c0 -107 -4 -195 -8 -195 -5 0 -93 88 -196
195 l-188 195 -99 0 -99 0 0 -325z"/>
</g>
</svg>
