<?xml version="1.0" standalone="no"?>
<!DOCTYPE svg PUBLIC "-//W3C//DTD SVG 20010904//EN"
 "http://www.w3.org/TR/2001/REC-SVG-20010904/DTD/svg10.dtd">
<svg version="1.0" xmlns="http://www.w3.org/2000/svg"
 width="2400.000000pt" height="1500.000000pt" viewBox="0 0 2400.000000 1500.000000"
 preserveAspectRatio="xMidYMid meet">

<g transform="translate(0.000000,1500.000000) scale(0.100000,-0.100000)"
fill="#000000" stroke="none">
<path d="M2869 9234 c-47 -7 -105 -18 -130 -23 -30 -7 -100 -7 -227 1 -252 17
-438 -7 -596 -74 l-48 -21 -87 21 c-214 52 -437 77 -626 68 -294 -13 -486 -82
-639 -229 -122 -118 -183 -250 -217 -469 -19 -123 -19 -135 -4 -236 54 -360
199 -829 350 -1133 204 -408 461 -559 729 -429 l58 28 42 -28 c143 -94 426
-119 632 -55 21 7 22 3 28 -122 14 -251 34 -358 96 -490 104 -222 304 -305
602 -249 325 61 487 208 563 510 25 98 39 198 51 369 l6 87 107 0 c242 0 477
74 627 197 122 99 126 234 9 300 -61 34 -113 38 -271 18 -79 -10 -147 -16
-150 -13 -3 3 10 28 29 55 151 213 312 552 390 823 54 184 70 299 65 444 -7
161 -27 216 -117 310 -172 179 -406 293 -703 341 -116 19 -447 18 -569 -1z
m568 -90 c247 -43 450 -142 602 -295 30 -30 62 -72 72 -95 95 -213 -20 -703
-269 -1150 -91 -163 -95 -169 -189 -301 -40 -56 -73 -104 -73 -107 0 -3 17
-10 38 -15 56 -16 212 -13 342 6 113 16 117 16 155 -3 35 -17 40 -24 43 -57 3
-33 -2 -43 -35 -76 -128 -127 -364 -198 -624 -189 l-129 5 -5 -31 c-3 -17 -21
-137 -41 -266 -39 -262 -53 -330 -84 -413 -25 -66 -101 -155 -165 -192 -159
-94 -449 -124 -587 -62 -115 51 -205 169 -233 304 -18 85 -35 326 -35 495 l0
126 -74 -38 c-106 -55 -204 -74 -340 -67 -208 11 -340 84 -306 167 17 41 72
66 209 95 135 28 174 46 221 103 l30 36 -75 13 c-42 7 -92 20 -111 28 -36 15
-37 15 -78 -21 -22 -21 -106 -101 -186 -179 -170 -165 -218 -195 -317 -195
-99 0 -172 38 -268 138 -155 163 -332 574 -450 1042 -56 225 -69 305 -69 440
1 229 59 393 183 519 150 150 332 211 628 211 204 0 391 -26 612 -84 52 -13
55 -13 115 15 130 60 288 85 491 75 77 -3 158 -10 180 -15 31 -8 58 -6 120 8
72 17 186 34 300 45 75 7 314 -4 402 -20z"/>
<path d="M3015 9064 c-11 -2 -47 -6 -79 -9 l-59 -7 96 -48 c145 -72 231 -133
350 -253 59 -59 107 -111 107 -116 0 -4 9 -19 21 -32 28 -32 79 -121 112 -195
30 -68 36 -155 17 -253 -28 -147 -31 -226 -16 -347 29 -218 19 -336 -39 -446
-14 -27 -23 -53 -20 -56 3 -4 9 -2 13 4 54 77 171 261 215 339 194 344 320
780 287 991 -12 77 -32 114 -88 166 -143 132 -370 231 -592 258 -77 9 -276 12
-325 4z"/>
<path d="M1090 9020 c-335 -38 -523 -214 -560 -525 -18 -156 1 -296 79 -585
60 -219 74 -263 131 -415 148 -394 315 -625 452 -625 51 0 91 31 272 207 l167
162 -31 23 c-46 33 -111 124 -139 193 -27 67 -26 44 -17 510 5 302 10 373 32
460 49 193 119 334 220 443 35 37 63 69 64 73 0 7 -164 45 -275 63 -117 19
-300 27 -395 16z"/>
<path d="M2183 9020 c-317 -63 -525 -296 -593 -663 -16 -90 -16 -98 -1 -91 42
17 161 56 200 65 68 15 219 12 278 -6 78 -23 145 -93 171 -176 37 -121 55
-263 49 -383 -8 -140 -13 -158 -102 -346 -41 -85 -77 -167 -80 -182 -7 -25 -5
-28 20 -28 76 0 160 -52 194 -118 16 -33 19 -75 25 -387 8 -467 20 -540 106
-638 62 -70 107 -90 216 -95 153 -7 324 47 403 128 49 50 73 113 100 256 30
160 91 586 91 637 0 55 23 123 53 156 12 13 41 32 65 43 23 10 42 21 42 23 0
2 -23 30 -51 62 -28 32 -71 92 -96 133 -24 41 -73 121 -109 178 -131 208 -184
339 -192 470 -6 108 12 155 80 217 65 58 122 76 275 84 l123 6 -23 41 c-47 88
-61 111 -103 165 -180 234 -443 392 -738 444 -94 16 -330 19 -403 5z"/>
<path d="M3251 8249 c-168 -30 -201 -141 -108 -368 32 -78 126 -247 193 -346
23 -33 49 -76 59 -95 l18 -35 21 45 c25 56 28 200 6 373 -13 111 -13 127 7
270 12 84 20 153 19 155 -9 8 -169 9 -215 1z m93 -39 c33 -12 33 -35 -1 -66
-32 -30 -62 -38 -108 -30 -65 12 -88 65 -37 84 57 23 108 27 146 12z"/>
<path d="M1830 8229 c-67 -12 -138 -36 -200 -67 l-55 -27 -1 -175 c-1 -96 -7
-214 -13 -262 -14 -96 -8 -148 28 -230 41 -97 158 -191 274 -223 97 -26 104
-23 142 70 17 44 53 121 78 170 68 136 82 189 81 330 -1 132 -29 292 -61 347
-28 48 -94 78 -167 77 -34 -1 -81 -5 -106 -10z m218 -59 c44 -27 42 -49 -8
-83 -13 -9 -43 -17 -65 -17 -75 0 -141 70 -103 108 20 20 138 15 176 -8z"/>
<path d="M3469 7110 c-47 -13 -67 -30 -79 -65 -19 -57 -7 -73 57 -81 72 -9
217 1 309 20 75 16 155 48 214 85 l35 22 -31 -6 c-142 -28 -359 -21 -439 14
-25 11 -49 15 -66 11z"/>
<path d="M2026 7030 c-39 -38 -80 -76 -91 -84 -28 -19 -136 -51 -222 -66 -40
-6 -73 -15 -73 -20 0 -12 84 -30 170 -37 97 -7 184 9 262 48 66 33 148 107
148 133 0 26 -28 74 -49 86 -44 23 -71 12 -145 -60z"/>
<path d="M17500 8584 c-14 -2 -63 -9 -110 -15 -349 -45 -538 -170 -607 -403
-22 -71 -21 -243 1 -326 32 -124 111 -222 226 -280 117 -59 327 -111 685 -170
387 -63 588 -106 672 -144 71 -33 136 -96 164 -159 30 -71 37 -190 15 -277
-42 -163 -155 -252 -387 -301 -90 -20 -135 -23 -329 -23 -172 0 -247 4 -318
17 -299 56 -471 188 -527 404 -8 31 -15 74 -15 94 0 70 2 69 -146 69 l-134 0
0 -62 c0 -35 9 -101 20 -147 86 -358 396 -528 1010 -556 253 -11 573 28 729
90 103 40 195 100 254 166 97 106 137 218 137 379 0 165 -39 268 -137 361
-123 118 -292 173 -798 259 -570 97 -697 133 -787 227 -61 63 -83 123 -82 229
1 80 4 99 31 156 83 177 273 248 663 248 228 0 407 -31 521 -90 61 -31 134
-97 169 -151 38 -59 70 -163 70 -228 l0 -31 135 0 c112 0 137 3 141 15 11 28
-17 179 -46 248 -83 198 -266 318 -585 383 -59 12 -150 17 -345 19 -146 2
-276 2 -290 -1z"/>
<path d="M19993 8574 c-572 -83 -944 -398 -1040 -881 -27 -136 -24 -389 7
-513 52 -213 125 -345 275 -496 150 -150 284 -234 476 -298 364 -120 966 -111
1268 20 72 31 65 34 196 -59 50 -35 132 -92 182 -126 107 -73 85 -78 207 38
32 30 54 57 49 60 -5 3 -91 62 -191 130 -100 68 -182 127 -182 131 0 4 26 28
58 54 159 127 272 315 325 541 18 76 21 120 21 280 -1 170 -4 200 -27 286 -33
126 -65 203 -124 302 -54 91 -184 230 -283 302 -171 124 -407 207 -672 235
-130 14 -435 11 -545 -6z m592 -178 c188 -39 338 -109 469 -216 201 -166 302
-361 325 -630 45 -533 -231 -916 -748 -1036 -134 -31 -380 -43 -524 -25 -338
43 -602 194 -762 436 -102 155 -140 299 -140 530 1 288 70 478 239 653 155
160 379 266 641 301 97 13 414 5 500 -13z"/>
<path d="M5064 8531 c-2 -2 -4 -492 -4 -1088 l0 -1083 130 0 130 0 2 463 3
462 170 2 c94 2 359 4 590 6 443 4 447 4 585 55 80 29 181 96 240 159 103 110
150 238 150 409 0 271 -123 467 -354 563 -145 60 -177 62 -944 59 -381 -1
-695 -5 -698 -7z m1277 -171 c178 -13 272 -50 353 -140 120 -133 142 -381 49
-552 -51 -93 -139 -152 -286 -191 -79 -20 -103 -21 -607 -22 l-525 0 -3 445
c-1 245 0 451 3 458 5 15 815 17 1016 2z"/>
<path d="M21830 7450 l0 -1090 939 0 938 0 7 61 c3 34 6 75 6 90 l0 29 -815 0
-815 0 0 1000 0 1000 -130 0 -130 0 0 -1090z"/>
<path d="M10940 8025 l0 -235 -145 0 -145 0 0 -75 0 -75 145 0 145 0 0 -522
c0 -573 2 -598 58 -667 39 -49 92 -76 184 -95 77 -16 272 -20 333 -7 30 6 30
7 33 79 l3 73 -38 -8 c-63 -13 -199 -7 -247 11 -54 21 -81 50 -95 101 -7 26
-11 210 -11 538 l0 497 195 0 195 0 0 75 0 75 -195 0 -195 0 0 235 0 235 -110
0 -110 0 0 -235z"/>
<path d="M7663 7815 c-193 -35 -333 -104 -453 -225 -104 -103 -152 -193 -182
-339 -26 -126 -21 -311 12 -416 108 -344 403 -524 860 -525 513 -1 837 201
915 569 24 115 20 299 -9 412 -74 289 -300 472 -648 523 -128 19 -393 20 -495
1z m500 -159 c138 -34 253 -97 316 -172 88 -107 125 -230 125 -409 0 -210 -41
-324 -154 -436 -123 -121 -254 -167 -500 -176 -181 -6 -293 13 -407 69 -137
67 -248 207 -288 363 -22 85 -20 271 4 361 57 222 229 368 488 414 76 14 338
5 416 -14z"/>
<path d="M9540 7823 c-77 -8 -209 -35 -270 -55 -162 -53 -255 -164 -267 -321
-11 -140 32 -236 138 -306 89 -59 194 -81 704 -146 283 -36 334 -45 377 -68
91 -48 127 -104 128 -200 0 -176 -150 -261 -485 -274 -412 -16 -651 87 -672
291 l-6 56 -120 0 -120 0 7 -55 c18 -155 110 -277 261 -346 222 -101 750 -117
1045 -32 222 64 342 214 327 409 -9 124 -71 210 -194 272 -110 56 -187 71
-548 112 -395 45 -474 62 -557 122 -62 44 -85 146 -49 223 36 78 105 125 241
162 95 26 437 26 530 0 141 -39 225 -102 260 -193 11 -30 20 -68 20 -84 l0
-30 115 0 115 0 0 40 c0 22 -9 68 -21 102 -61 183 -234 287 -524 318 -86 9
-360 11 -435 3z"/>
<path d="M12380 7823 c-233 -31 -433 -126 -542 -256 -63 -76 -100 -151 -128
-262 -20 -80 -22 -106 -17 -230 6 -158 19 -213 74 -323 103 -208 320 -331 640
-363 62 -7 157 -8 222 -5 268 16 439 78 575 209 33 31 62 57 64 57 11 0 -8
-359 -21 -405 -41 -146 -147 -257 -290 -304 -246 -82 -663 -59 -819 44 -51 34
-104 108 -125 175 -9 30 -18 56 -19 58 -2 3 -166 4 -221 2 -8 0 -7 -16 4 -57
46 -176 149 -287 323 -346 133 -45 389 -73 580 -63 468 23 704 163 787 466 17
60 18 126 18 815 l0 750 -107 3 -108 3 -2 -78 c-1 -43 -3 -97 -3 -121 0 -23
-1 -42 -3 -42 -2 0 -45 38 -96 84 -108 97 -160 126 -289 162 -81 23 -115 26
-277 29 -102 2 -201 1 -220 -2z m455 -168 c212 -48 368 -196 415 -395 19 -76
16 -240 -5 -320 -39 -151 -138 -268 -288 -339 -123 -58 -167 -66 -367 -65
-146 1 -188 4 -255 23 -116 31 -192 70 -261 134 -106 98 -154 225 -154 407 0
173 42 291 139 389 92 94 197 147 348 176 97 18 327 13 428 -10z"/>
<path d="M14345 7819 c-178 -26 -293 -107 -361 -254 l-19 -40 -3 126 -3 126
-92 6 c-124 9 -132 7 -131 -29 0 -16 1 -336 2 -711 l2 -683 109 0 110 0 4 443
c3 412 5 446 24 502 69 204 182 305 384 341 81 15 262 14 303 -2 14 -5 16 5
16 90 l0 96 -142 -1 c-79 -1 -170 -5 -203 -10z"/>
<path d="M15385 7819 c-243 -33 -424 -119 -549 -261 -55 -62 -119 -186 -143
-278 -26 -101 -24 -312 5 -415 76 -267 275 -444 589 -522 97 -24 127 -27 293
-27 206 -1 288 10 420 56 137 48 197 85 291 178 83 83 137 167 155 243 l6 27
-118 0 -119 -1 -30 -66 c-59 -132 -187 -229 -359 -273 -99 -25 -328 -28 -433
-5 -291 61 -461 232 -488 489 l-7 66 791 0 c705 0 792 2 798 15 8 23 -15 191
-37 261 -37 122 -86 203 -179 294 -70 69 -103 94 -175 128 -151 74 -302 103
-519 101 -73 -1 -159 -5 -192 -10z m450 -163 c108 -36 156 -63 229 -127 112
-97 174 -202 183 -310 l6 -59 -677 0 -677 0 7 38 c10 56 60 182 94 235 76 120
221 209 401 247 24 5 114 8 199 6 137 -3 165 -6 235 -30z"/>
</g>
</svg>
