<?xml version="1.0" standalone="no"?>
<!DOCTYPE svg PUBLIC "-//W3C//DTD SVG 20010904//EN"
 "http://www.w3.org/TR/2001/REC-SVG-20010904/DTD/svg10.dtd">
<svg version="1.0" xmlns="http://www.w3.org/2000/svg"
 width="1280.000000pt" height="384.000000pt" viewBox="0 0 1280.000000 384.000000"
 preserveAspectRatio="xMidYMid meet">

<g transform="translate(0.000000,384.000000) scale(0.100000,-0.100000)"
fill="#000000" stroke="none">
<path d="M1745 3830 c-879 -89 -1565 -727 -1716 -1595 -32 -184 -32 -446 0
-630 71 -405 252 -756 536 -1040 499 -499 1236 -684 1912 -479 1010 306 1584
1379 1277 2390 -210 695 -795 1211 -1511 1333 -142 24 -371 33 -498 21z m460
-528 c282 -61 507 -184 710 -387 207 -206 334 -444 392 -732 24 -122 24 -404
0 -526 -58 -288 -185 -526 -392 -732 -206 -207 -444 -334 -732 -392 -122 -24
-404 -24 -526 0 -288 58 -526 185 -732 392 -207 206 -334 443 -392 732 -24
122 -24 404 0 526 120 594 576 1035 1172 1132 123 20 378 13 500 -13z"/>
<path d="M1353 2775 c-78 -21 -130 -51 -185 -106 -88 -88 -131 -219 -109 -336
47 -255 294 -394 536 -303 84 32 183 131 215 215 89 235 -44 482 -288 534 -67
14 -104 13 -169 -4z"/>
<path d="M2305 2776 c-237 -59 -362 -300 -275 -531 32 -84 131 -183 215 -215
242 -91 489 48 536 303 22 117 -21 248 -109 336 -56 56 -107 85 -189 106 -67
18 -110 18 -178 1z"/>
<path d="M1329 1822 c-143 -48 -242 -163 -270 -315 -47 -254 194 -495 448
-448 255 47 394 294 303 536 -32 84 -131 183 -215 215 -82 31 -192 36 -266 12z"/>
<path d="M2278 1821 c-76 -25 -118 -52 -177 -116 -207 -227 -77 -589 232 -646
254 -47 495 194 448 448 -44 240 -277 386 -503 314z"/>
<path d="M4941 3004 c-140 -45 -294 -94 -343 -109 l-88 -27 -2 -186 -3 -187
-89 -3 c-50 -2 -96 -8 -103 -14 -19 -15 -19 -511 0 -526 7 -6 53 -12 103 -14
l89 -3 6 -385 c6 -421 8 -435 71 -558 59 -118 186 -209 344 -249 52 -13 110
-17 239 -17 150 1 181 4 265 26 52 15 116 35 143 47 l47 20 0 258 c0 142 -4
264 -9 271 -7 11 -21 10 -76 -7 -84 -26 -186 -28 -235 -3 -23 11 -43 33 -58
62 -22 44 -22 52 -20 290 l3 245 195 3 c140 2 196 6 202 15 4 6 8 104 9 217 0
132 4 198 9 185 5 -11 116 -373 246 -805 130 -432 243 -793 251 -802 15 -16
42 -18 293 -18 210 0 280 3 287 13 6 6 61 172 123 367 96 302 130 398 130 368
0 -3 31 -106 69 -229 38 -123 86 -282 107 -354 20 -71 44 -138 52 -147 14 -16
41 -18 292 -18 212 0 280 3 288 13 6 7 120 375 254 819 l243 806 5 -809 c4
-705 7 -811 20 -819 21 -14 666 -13 691 0 19 10 19 31 19 871 0 574 -3 867
-10 880 -10 18 -28 19 -670 19 -585 0 -660 -2 -674 -16 -9 -8 -16 -21 -16 -28
0 -17 -158 -626 -169 -651 -12 -26 -3 -49 -121 340 -63 209 -106 335 -117 343
-20 14 -519 17 -542 3 -7 -5 -60 -162 -116 -350 -56 -188 -105 -344 -108 -348
-10 -9 -12 -2 -97 352 -57 238 -83 333 -96 342 -14 10 -128 13 -531 13 l-513
0 0 280 c0 256 -1 280 -17 288 -13 6 -93 -16 -272 -74z"/>
<path d="M8290 3061 c-6 -12 -10 -98 -10 -213 0 -159 3 -198 16 -216 l15 -22
343 0 c258 0 346 3 359 13 16 11 17 34 15 232 l-3 220 -362 3 c-350 2 -363 2
-373 -17z"/>
<path d="M9160 3061 c-14 -27 -14 -2265 0 -2292 10 -18 25 -19 360 -19 l350 0
5 22 c3 13 4 536 3 1163 l-3 1140 -352 3 c-340 2 -353 2 -363 -17z"/>
<path d="M10012 3068 c-9 -9 -12 -71 -12 -225 0 -200 1 -213 19 -223 30 -16
692 -14 714 3 16 11 17 34 15 232 l-3 220 -360 3 c-272 2 -364 -1 -373 -10z"/>
<path d="M11560 2520 c-294 -63 -536 -243 -662 -495 -56 -109 -80 -211 -86
-352 -4 -113 -1 -147 17 -227 128 -555 746 -855 1326 -645 168 61 337 189 441
335 243 341 208 800 -85 1107 -136 142 -308 237 -506 278 -120 25 -327 25
-445 -1z m364 -618 c160 -86 196 -344 69 -492 -103 -120 -300 -121 -404 -2
-106 121 -110 310 -8 426 50 57 97 85 157 96 67 12 129 2 186 -28z"/>
<path d="M10026 2494 c-14 -14 -16 -106 -16 -863 0 -645 3 -850 12 -859 17
-17 689 -17 706 0 9 9 12 214 12 859 0 757 -2 849 -16 863 -13 14 -59 16 -349
16 -290 0 -336 -2 -349 -16z"/>
</g>
</svg>
